<?xml version="1.0" standalone="no"?>
<!DOCTYPE svg PUBLIC "-//W3C//DTD SVG 20010904//EN"
 "http://www.w3.org/TR/2001/REC-SVG-20010904/DTD/svg10.dtd">
<svg version="1.0" xmlns="http://www.w3.org/2000/svg"
 width="512.000000pt" height="512.000000pt" viewBox="0 0 512.000000 512.000000"
 preserveAspectRatio="xMidYMid meet">
<metadata>
Created by potrace 1.16, written by Peter Selinger 2001-2019
</metadata>
<g transform="translate(0.000000,512.000000) scale(0.100000,-0.100000)"
fill="#000000" stroke="none">
<path d="M2330 4620 c-424 -91 -749 -401 -860 -820 -33 -126 -39 -370 -12
-500 91 -436 395 -755 829 -871 119 -32 365 -38 493 -11 453 95 787 427 881
877 40 192 21 431 -51 628 -128 351 -444 618 -825 698 -121 25 -336 25 -455
-1z m455 -340 c222 -69 396 -221 493 -430 52 -111 72 -204 72 -333 0 -301
-167 -570 -435 -703 -122 -60 -222 -84 -352 -84 -129 0 -222 20 -333 72 -169
78 -294 199 -376 363 -60 122 -84 222 -84 352 0 136 21 225 80 348 84 172 193
281 365 365 185 90 383 107 570 50z"/>
<path d="M1376 2570 c-56 -18 -197 -173 -300 -332 -110 -170 -201 -392 -246
-603 -31 -146 -39 -412 -15 -486 26 -78 61 -134 132 -210 180 -190 536 -339
992 -413 237 -39 401 -49 713 -43 351 7 535 30 814 102 459 119 751 312 835
553 19 51 20 74 16 227 -4 118 -12 200 -27 270 -67 314 -222 617 -429 837 -86
92 -113 108 -178 108 -93 0 -162 -67 -163 -157 0 -62 12 -85 90 -169 226 -243
362 -558 377 -871 7 -149 2 -164 -84 -243 -149 -137 -489 -255 -873 -305 -267
-35 -680 -35 -938 -1 -387 52 -723 169 -871 302 -82 75 -91 94 -91 202 0 301
145 661 362 898 92 99 98 110 98 175 0 61 -22 105 -70 141 -30 21 -104 31
-144 18z"/>
</g>
</svg>
