<?xml version="1.0" standalone="no"?>
<!DOCTYPE svg PUBLIC "-//W3C//DTD SVG 20010904//EN"
 "http://www.w3.org/TR/2001/REC-SVG-20010904/DTD/svg10.dtd">
<svg version="1.0" xmlns="http://www.w3.org/2000/svg"
 width="512.000000pt" height="512.000000pt" viewBox="0 0 512.000000 512.000000"
 preserveAspectRatio="xMidYMid meet">
<metadata>
Created by potrace 1.16, written by Peter Selinger 2001-2019
</metadata>
<g transform="translate(0.000000,512.000000) scale(0.100000,-0.100000)"
fill="#000000" stroke="none">
<path d="M1090 5109 c-92 -37 -140 -121 -140 -246 l0 -82 -207 -3 c-204 -3
-209 -4 -268 -31 -79 -37 -156 -114 -192 -191 l-28 -61 0 -782 c0 -869 -5
-808 67 -820 30 -4 41 -1 62 20 l26 26 0 306 0 305 2150 0 2150 0 0 -982 c0
-972 0 -982 -21 -1024 -12 -26 -36 -53 -57 -66 -36 -22 -46 -23 -352 -28
l-316 -5 -66 -33 c-79 -39 -129 -93 -158 -169 -18 -49 -20 -78 -20 -334 0
-171 -4 -297 -11 -324 -15 -61 -67 -111 -131 -124 -67 -15 -2903 -15 -2979 -1
-70 14 -121 49 -156 107 l-28 48 -5 1036 c-4 826 -8 1039 -18 1051 -33 40
-111 28 -131 -20 -8 -20 -11 -364 -9 -1213 l3 -1186 40 -79 c47 -91 110 -150
200 -183 l56 -21 2022 2 2022 3 57 27 c75 35 142 104 181 186 l32 67 3 2070
c3 2172 4 2132 -40 2219 -33 65 -112 141 -181 172 -61 29 -65 29 -269 32
l-208 3 0 83 c0 104 -31 174 -98 221 -40 27 -52 30 -136 33 -110 4 -152 -11
-209 -78 -41 -48 -57 -103 -57 -194 l0 -66 -1110 0 -1110 0 0 66 c0 91 -16
146 -57 194 -54 63 -97 80 -195 79 -46 0 -94 -5 -108 -10z m178 -175 c18 -21
22 -37 22 -90 l0 -64 -90 0 -90 0 0 64 c0 81 6 95 44 112 40 18 85 9 114 -22z
m2691 25 c42 -15 51 -35 51 -113 l0 -66 -90 0 -90 0 0 64 c0 70 22 111 63 119
12 2 25 5 28 6 3 0 20 -4 38 -10z m-3007 -487 c3 -143 4 -150 31 -190 50 -77
158 -124 226 -101 36 13 51 35 51 77 0 36 -33 67 -82 76 -59 11 -68 32 -68
168 l0 118 1280 0 1280 0 0 -118 c0 -147 15 -204 67 -254 51 -48 97 -70 153
-72 62 -1 90 22 90 76 0 45 -28 78 -66 78 -15 0 -38 12 -55 29 -29 29 -29 31
-29 145 l0 116 353 0 c393 0 397 -1 464 -71 60 -64 63 -83 63 -480 l0 -359
-2150 0 -2150 0 0 359 c0 397 3 416 63 480 60 63 90 71 294 71 l181 0 4 -148z
m3283 -3542 c-197 -197 -359 -358 -360 -357 0 1 2 139 5 307 5 296 6 306 27
336 13 18 42 41 65 53 41 20 58 21 333 21 l290 0 -360 -360z m465 -609 c-15
-58 -63 -116 -117 -142 l-48 -24 -1939 -3 c-1286 -1 -1958 1 -1995 8 -30 6
-72 21 -93 35 -38 25 -81 89 -92 137 l-6 27 57 -27 58 -27 1630 0 1630 0 60
33 c48 26 143 115 460 432 l400 400 3 -406 c1 -250 -2 -420 -8 -443z"/>
<path d="M2397 2950 c-308 -56 -570 -255 -703 -536 -67 -140 -88 -240 -88
-414 0 -160 12 -227 65 -359 187 -468 724 -711 1204 -545 39 13 78 34 88 45
25 31 22 81 -7 108 -30 28 -52 26 -181 -14 -78 -24 -106 -28 -215 -28 -106 0
-138 4 -213 27 -149 44 -266 115 -362 217 -368 392 -268 1004 206 1258 129 69
202 86 369 86 124 0 156 -3 220 -23 361 -113 601 -452 577 -817 -13 -186 -86
-358 -211 -494 -33 -35 -41 -50 -41 -83 0 -48 30 -78 78 -78 25 0 43 12 89 60
253 267 319 703 158 1047 -119 254 -334 438 -607 519 -73 22 -112 27 -233 30
-80 1 -167 -1 -193 -6z"/>
<path d="M2501 2584 c-20 -26 -21 -38 -21 -326 0 -192 4 -306 11 -319 15 -29
365 -259 394 -259 29 0 73 37 76 65 8 55 -8 71 -166 174 l-155 101 0 269 c0
256 -1 269 -21 295 -16 20 -29 26 -59 26 -30 0 -43 -6 -59 -26z"/>
</g>
</svg>
