<?xml version="1.0" standalone="no"?>
<!DOCTYPE svg PUBLIC "-//W3C//DTD SVG 20010904//EN"
 "http://www.w3.org/TR/2001/REC-SVG-20010904/DTD/svg10.dtd">
<svg version="1.0" xmlns="http://www.w3.org/2000/svg"
 width="512.000000pt" height="512.000000pt" viewBox="0 0 512.000000 512.000000"
 preserveAspectRatio="xMidYMid meet">

<g transform="translate(0.000000,512.000000) scale(0.100000,-0.100000)"
fill="#000000" stroke="none">
<path d="M2370 5114 c-19 -2 -78 -9 -130 -15 -791 -90 -1522 -586 -1924 -1305
-146 -262 -252 -588 -297 -914 -18 -125 -18 -515 0 -640 105 -762 511 -1409
1146 -1826 840 -552 1956 -550 2797 4 1266 835 1539 2571 591 3747 -409 507
-974 829 -1633 930 -100 15 -472 28 -550 19z m545 -343 c628 -106 1158 -448
1511 -977 179 -267 296 -573 351 -909 24 -153 24 -497 0 -650 -108 -668 -474
-1222 -1042 -1580 -243 -153 -537 -261 -850 -312 -154 -24 -497 -24 -650 1
-658 107 -1197 455 -1557 1006 -168 257 -281 557 -335 885 -24 153 -24 497 0
650 81 497 291 912 636 1255 382 381 862 605 1401 654 108 10 418 -4 535 -23z"/>
<path d="M2820 3509 c-598 -239 -832 -338 -852 -357 -19 -20 -117 -254 -358
-857 -299 -749 -332 -834 -327 -874 8 -74 64 -130 138 -138 40 -5 125 28 874
327 603 241 837 339 857 358 19 20 117 254 358 857 299 749 332 834 327 874
-9 76 -66 132 -144 137 -44 4 -120 -25 -873 -327z m567 -131 c-85 -216 -401
-1004 -404 -1008 -2 -2 -142 134 -310 303 -169 168 -305 308 -303 310 7 6
1004 405 1014 406 4 1 6 -5 3 -11z m-937 -933 c167 -167 302 -306 300 -308
-10 -8 -1014 -407 -1017 -404 -4 5 401 1017 407 1017 3 0 142 -137 310 -305z"/>
</g>
</svg>
