<?xml version="1.0" standalone="no"?>
<!DOCTYPE svg PUBLIC "-//W3C//DTD SVG 20010904//EN"
 "http://www.w3.org/TR/2001/REC-SVG-20010904/DTD/svg10.dtd">
<svg version="1.0" xmlns="http://www.w3.org/2000/svg"
 width="512.000000pt" height="512.000000pt" viewBox="0 0 512.000000 512.000000"
 preserveAspectRatio="xMidYMid meet">

<g transform="translate(0.000000,512.000000) scale(0.100000,-0.100000)"
fill="#000000" stroke="none">
<path d="M1965 5101 c-91 -26 -143 -58 -211 -125 -122 -122 -170 -290 -129
-449 57 -220 244 -367 467 -367 265 0 478 215 478 482 0 309 -311 545 -605
459z"/>
<path d="M1829 4111 c-43 -14 -72 -32 -129 -83 -30 -27 -228 -174 -440 -326
-320 -231 -389 -284 -408 -319 -21 -38 -25 -78 -56 -472 -26 -324 -32 -441
-24 -469 39 -143 217 -190 322 -86 16 16 35 43 42 59 7 17 24 181 39 380 14
193 28 360 30 372 4 14 67 66 188 153 l182 132 6 -554 c4 -409 8 -563 18 -593
12 -38 3 -79 -199 -915 -224 -926 -224 -925 -186 -998 40 -77 121 -126 211
-125 103 0 187 61 218 160 9 26 102 408 208 848 105 440 195 803 198 806 3 4
103 -40 221 -97 118 -57 218 -105 223 -106 4 -2 -2 -148 -13 -326 -15 -234
-18 -334 -10 -361 14 -53 48 -100 98 -135 59 -42 159 -49 226 -16 51 24 91 67
114 120 16 37 61 644 61 825 1 107 -17 156 -75 204 -22 18 -186 102 -366 188
l-328 156 0 341 c0 187 4 336 8 331 5 -6 54 -64 109 -130 116 -139 148 -170
185 -184 15 -6 194 -29 397 -52 418 -48 425 -48 492 20 68 67 76 171 20 248
-47 65 -72 72 -422 112 l-318 36 -243 290 c-236 282 -271 328 -332 442 -55
103 -166 154 -267 124z"/>
<path d="M4085 2416 c-143 -45 -269 -85 -279 -89 -17 -7 -12 -15 44 -72 56
-56 62 -67 50 -79 -8 -7 -143 -116 -300 -241 -157 -125 -295 -238 -307 -252
-23 -24 -23 -24 -23 -389 l0 -364 -602 0 c-650 -1 -627 1 -648 -54 -6 -17 -10
-158 -10 -372 l0 -344 -582 -1 c-321 -1 -594 -4 -607 -8 -60 -17 -76 -87 -29
-131 21 -20 32 -20 672 -20 496 1 655 4 667 13 37 28 39 48 39 411 l0 356 604
0 605 0 20 26 c20 26 21 38 22 408 l0 381 303 242 303 241 74 -74 c40 -40 76
-70 79 -66 4 4 35 99 70 212 35 113 74 238 86 278 12 39 19 72 16 71 -4 -1
-124 -38 -267 -83z"/>
</g>
</svg>
